<?xml version="1.0" encoding="utf-8"?>
<svg version="1.1" xmlns="http://www.w3.org/2000/svg" xmlns:xlink="http://www.w3.org/1999/xlink" viewBox="257.30 196.99 406.19 394.03">
<style type="text/css">
	.st0{fill:#FFFFFF;}
	.st1{fill:#FFFFFF;}
	.st2{fill:none;stroke:#FF0000;stroke-width:0.5;stroke-miterlimit:10;}
	.st3{fill:#FFFFFF;}
</style>

<path class="st0" d="M384.01,446l1.93,80l-9.71,37.21l-4.63,0.4c-0.09,0.01-0.17-0.08-0.19-0.18c-0.46-2.14-0.7-5.34-0.83-9.02
	l-3.65-107.98c-0.01-0.28,0.12-0.55,0.35-0.69c3.63-2.3,11.6-1.78,16.16-0.49C383.78,445.34,384.01,445.65,384.01,446z"/>
<path class="st1" d="M632.18,415.65c-52.29,19.35-85.56,86.37-85.24,144.29h-31.76c6.63-56.7,38.73-116.94,101.15-144.01
	c0.36-0.15,0.22-0.7-0.17-0.65c-70.37,8.71-137.93,66.67-158.04,144.39h-31.5c13.78-46.15,38.85-85.19,80.05-114.09
	c24.99-17.17,56.47-26.81,91.17-32.71c0.41-0.07,0.36-0.68-0.06-0.67c-52.71,0.43-103.35,10.34-140.46,30.74
	c-46.19,24.93-79.19,75.88-85.72,120.66c0,0,0,0,0,0c4.63,2.76,10.42,4.87,18.57,5.65h197.07c27.46-1.95,51.93-22.31,54.49-53.34
	V282.3c0-9.51-2.11-18.96-6.59-27.35c-5.1-9.54-12.64-17.23-22.21-22.42c-8.31-4.5-17.7-6.62-27.16-6.62H452.05
	c-4.58,0-9.15,0.48-13.57,1.68c-11.55,3.14-21.55,10.24-29.34,22.9c-4.79,8.78-7.33,18.4-7.91,27.67c-0.03,0.42,0.56,0.55,0.71,0.15
	c7.42-19.48,20.67-34.12,35.06-40.12c4.2-1.75,8.75-2.56,13.3-2.56h138.83c3.52,0,7.05,0.42,10.44,1.38
	c14.63,4.17,26.22,16.33,30.74,30.62c1.21,3.84,1.75,7.87,1.76,11.89l0.22,62.03c0,0.07-0.07,0.1-0.13,0.06
	c-20.58-15.2-40.73-16.01-62.89-6.66c-4,1.69-7.82,3.76-11.5,6.07c-2.81,1.77-5.71,3.65-8.69,5.62c-2.5,1.68-4.99,3.28-7.39,4.28
	c-1.21,0.51-2.49,0.8-3.79,0.98c-6.13,0.83-10.56,1.75-12.86,2.37c-3.22,0.79-6.98,2.95-11.16,6.22c-4.08,3.52-9.56,5.51-16.4,6.04
	c-2.3,0.18-4.58,0.57-6.77,1.28c-10.68,3.48-15.6,7.12-23.3,12.48c-1.84,1.28-3.88,2.27-6.02,2.93
	c-8.58,2.63-19.29,5.65-29.37,11.21c-0.09,0.05-0.05,0.18,0.05,0.17c70.23-5.44,139.28-1.9,199.78,12.28
	c0.33,0.08,0.56,0.37,0.56,0.7v108.1c-3.65,24.09-17.82,34.71-27.57,39.3c-9.44-30.26-7.61-65.71-3.34-83.42
	c5.27-19.92,14.85-38.62,30.79-53.76"/>
<path class="st1" d="M475.79,251.68c-55.86,3.16-78.69,39.57-82.46,101.81c-0.01,0.12,0.16,0.16,0.19,0.05
	c9.9-29.75,47.6-87.3,82.31-101.67C475.94,251.83,475.9,251.67,475.79,251.68z"/>
<path class="st1" d="M452.5,332.88c-22,14.94-47.85,52.09-59.9,79.31c45.03-13.76,168.28-11.63,181.17-5.44
	c0.06,0.03,0.03,0.11-0.03,0.11c-90.3,3.87-145.42,20.94-183.94,66.96l1.18-71.16C393.33,363.76,420.12,337.88,452.5,332.88z"/>
<path class="st0" d="M564.79,262.18l-2.45,13.68c-0.25,1.39-0.68,2.75-1.39,3.97c-1.25,2.14-2.97,3.61-5.37,4.11l-15.46,3.2
	c-0.46,0.1-0.48,0.75-0.02,0.87l15.95,4.05c3.39,0.86,5.06,3.26,5.88,6.41l2.89,14.85c0.09,0.44,0.7,0.5,0.86,0.07
	c0.88-2.48,1.96-9.3,3.12-15.29c0.72-2.74,2.3-4.5,4.46-5.6c0.73-0.37,1.52-0.62,2.32-0.81l14.14-3.43c0.46-0.11,0.45-0.76,0-0.87
	l-14.57-3.5c-3.29-1.02-5.56-3.18-6.44-6.88c-1.11-6.08-2.22-11.79-3.06-14.88C565.54,261.68,564.88,261.71,564.79,262.18z"/>
<path class="st1" d="M279.06,372.47c15.99-0.2,29.15,5.67,40.24,16c18.12,18.71,24.47,52,24.47,92.94
	c-5.12-15.18-11.13-30.05-17.65-42.12c-8.65-17.18-19.93-37.76-29.96-50.66C291.69,382.34,286.34,376.7,279.06,372.47z"/>
<path class="st0" d="M366.94,295.18l24.09,1.99c0.44,0.04,0.82-0.29,0.86-0.72l6.25-68.86c0.02-0.22-0.04-0.44-0.19-0.6
	c-4.31-4.72-23.11-11.92-28.81-6.03c-0.14,0.14-0.21,0.34-0.22,0.53l-2.72,72.87C366.19,294.78,366.51,295.15,366.94,295.18z"/>
<path class="st0" d="M391.21,303.28c-6.1-3.45-19.37-4.01-24.79-1.34c-0.27,0.13-0.42,0.41-0.43,0.7l-0.91,66.33
	c-0.01,0.4,0.28,0.74,0.67,0.81c6.62,1.11,13.54,1.27,20.74,0.57c0.39-0.04,0.7-0.36,0.73-0.75l4.38-65.57
	C391.62,303.72,391.47,303.43,391.21,303.28z"/>
<path class="st0" d="M386.63,377.3l-2.51,60.85c-0.02,0.38-0.29,0.7-0.66,0.76c-5.74,1.04-11.27,1.14-16.52,0.02
	c-0.37-0.08-0.63-0.41-0.63-0.78l-0.54-60.93c0-0.28,0.14-0.54,0.38-0.69c3.33-2.14,16.36-1.83,20.04,0.02
	C386.47,376.69,386.64,376.99,386.63,377.3z"/>
<path class="st0" d="M354.05,269.42c-5.87-4.13-22.39-9.59-28.84-2.44c-0.15,0.17-0.22,0.41-0.2,0.64l8.25,68.37
	c7.93,0.1,16.15-0.5,24.53-1.5l-3.42-64.47C354.36,269.79,354.25,269.57,354.05,269.42z"/>
<path class="st0" d="M362,405.7l-3.85-65.51c-0.02-0.42-0.37-0.75-0.8-0.76c-8.47-0.08-16.32,0.36-22.79,1.93
	c-0.39,0.1-0.65,0.47-0.6,0.87l7.33,64.33c0.39,1.73,1.54,2.52,3.04,2.85c6.27,0.45,11.92-0.71,17.17-2.92
	C361.82,406.36,362.02,406.04,362,405.7z"/>
<path class="st0" d="M343.46,414.63c5.91-1.39,11.96-1.75,18.06-1.7c0.43,0,0.78,0.35,0.79,0.78l2.26,67.01
	c0.01,0.25-0.09,0.49-0.28,0.64c-2.28,1.85-13.28,2.98-16.27,1.25c-0.23-0.13-0.38-0.37-0.4-0.64l-4.78-66.5
	C342.82,415.08,343.08,414.72,343.46,414.63z"/>
<path class="st0" d="M364.62,488.34l3.57,73.1c0.01,0.1-0.12,0.16-0.2,0.1c-6.95-5.73-11.72-13.8-14.53-23.95
	c-0.95-3.98-1.76-8.06-2.13-12.17l-3.27-35.79c-0.04-0.41,0.23-0.78,0.63-0.86c4.85-1.02,9.95-1.27,15.14-1.19
	C364.26,487.58,364.6,487.92,364.62,488.34z"/>
</svg>